<svg width="400" height="1048" viewBox="0 0 400 1048" fill="none" xmlns="http://www.w3.org/2000/svg">
<g clip-path="url(#clip0_187_107)">
<path fill-rule="evenodd" clip-rule="evenodd" d="M0 47.162V94.323H14.41H28.821V68.996V43.668H32.533H36.245V39.956V36.245H196.288H356.332V39.956V43.668H360.044H363.755V68.996V94.323H381.878H400V47.162V0H200H0V47.162ZM65.502 69.214V72.926H62.009H58.515V76.419V79.913H62.009H65.502V83.624V87.336H72.936H80.37L80.251 94.651L80.131 101.965L72.817 102.085L65.502 102.205V105.687V109.17H79.913H94.323V105.459V101.747H98.035H101.747V94.541V87.336H98.035H94.323V83.85V80.365L83.515 80.248L72.707 80.131V76.419V72.707L83.515 72.591L94.323 72.474V68.988V65.502H79.913H65.502V69.214ZM123.581 69.214V72.926H120.087H116.594V87.336V101.747H120.087H123.581V105.459V109.17H137.974H152.366L152.493 105.568L152.62 101.965L156.223 101.838L159.825 101.711V98.236V94.76H152.62H145.415V98.472V102.183H138.21H131.004V87.336V72.489H138.21H145.415V76.201V79.913H152.62H159.825V76.437V72.961L156.223 72.834L152.62 72.707L152.493 69.105L152.366 65.502H137.974H123.581V69.214ZM182.096 69.214V72.926H178.384H174.672V87.336V101.747H178.384H182.096V105.459V109.17H196.507H210.917V105.459V101.747H214.41H217.904V87.336V72.926H214.41H210.917V69.214V65.502H196.507H182.096V69.214ZM232.751 87.336V109.17H239.956H247.162V101.747V94.323H250.873H254.585V98.035V101.747H258.061H261.537L261.664 98.144L261.79 94.541L265.393 94.415L268.996 94.288V90.812V87.336H272.707H276.419V80.131V72.926H272.707H268.996V69.214V65.502H250.873H232.751V87.336ZM290.83 87.336V109.17H312.664H334.498V105.683V102.195L319.978 102.08L305.459 101.965L305.339 94.651L305.219 87.336H316.147H327.074V83.85V80.365L316.266 80.248L305.459 80.131V76.419V72.707L319.978 72.592L334.498 72.477V68.99V65.502H312.664H290.83V87.336ZM203.712 87.336V101.965L196.397 102.085L189.083 102.205V87.336V72.468L196.397 72.588L203.712 72.707V87.336ZM262.009 79.913V87.336H254.585H247.162V79.913V72.489H254.585H262.009V79.913ZM58.515 98.253V101.747H62.009H65.502V98.253V94.76H62.009H58.515V98.253ZM262.009 105.677V109.17H269.214H276.419V105.677V102.183H269.214H262.009V105.677ZM0 651.528V1048.04H200H400V651.528V255.022H200H0V651.528ZM356.332 331.004V334.498H360.044H363.755V407.424V480.349H360.044H356.332V484.061V487.773H196.288H36.245V484.061V480.349H32.531H28.818L28.929 407.533L29.039 334.716L32.642 334.589L36.245 334.462V330.987V327.511H196.288H356.332V331.004ZM58.515 378.384V400H80.131H101.747V396.507V393.013H87.118H72.489V374.891V356.769H65.502H58.515V378.384ZM116.594 378.384V400H138.21H159.825V396.507V393.013H145.415H131.004V385.59V378.166H141.703H152.402V374.672V371.179H141.703H131.004V367.467V363.755H145.415H159.825V360.262V356.769H138.21H116.594V378.384ZM174.672 371.179V385.59H178.166H181.659V371.179V356.769H178.166H174.672V371.179ZM203.827 371.288L203.712 385.808L200.109 385.935L196.507 386.062V389.537V393.013H192.795H189.083V389.52V386.026H185.59H182.096V389.52V393.013H185.59H189.083V396.507V400H196.288H203.493V396.507V393.013H207.205H210.917V389.301V385.59H214.41H217.904V371.179V356.769H210.923H203.942L203.827 371.288ZM232.751 378.384V400H254.585H276.419V396.507V393.013H261.79H247.162V385.59V378.166H258.079H268.996V374.672V371.179H258.079H247.162V367.467V363.755H261.79H276.419V360.262V356.769H254.585H232.751V378.384ZM290.83 378.384V400H312.664H334.498V396.507V393.013H319.869H305.24V374.891V356.769H298.035H290.83V378.384ZM356.332 505.677V509.17H360.044H363.755V582.096V655.022H360.044H356.332V658.734V662.445H196.288H36.245V658.734V655.022H32.531H28.818L28.929 582.205L29.039 509.389L32.642 509.262L36.245 509.135V505.659V502.183H196.288H356.332V505.677ZM58.515 553.057V574.672H80.131H101.747V571.179V567.686H87.118H72.489V549.563V531.441H65.502H58.515V553.057ZM123.581 534.934V538.428H127.293H131.004V553.057V567.686H127.293H123.581V571.179V574.672H137.991H152.402V571.179V567.686H148.908H145.415V553.057V538.428H148.908H152.402V534.934V531.441H137.991H123.581V534.934ZM174.672 553.057V574.672H178.158H181.644L181.761 563.865L181.878 553.057L185.48 552.93L189.083 552.803V556.533V560.262H192.795H196.507V563.974V567.686H200.218H203.93V571.179V574.672H210.917H217.904V553.057V531.441H210.917H203.93V542.358V553.275H200H196.07V549.563V545.852H192.576H189.083V542.358V538.865H185.371H181.659V535.153V531.441H178.166H174.672V553.057ZM232.751 553.057V574.672H254.585H276.419V571.179V567.686H261.79H247.162V560.262V552.838H258.079H268.996V549.345V545.852H258.079H247.162V542.14V538.428H261.79H276.419V534.934V531.441H254.585H232.751V553.057ZM298.253 535.153V538.865H294.541H290.83V542.358V545.852H294.541H298.253V549.345V552.838H305.459H312.664V560.262V567.686H305.459H298.253V564.192V560.699H294.541H290.83V564.192V567.686H294.541H298.253V571.179V574.672H312.664H327.074V571.179V567.686H330.786H334.498V560.48V553.275H330.786H327.074V549.563V545.852H316.157H305.24V542.14V538.428H316.157H327.074V534.934V531.441H312.664H298.253V535.153ZM363.755 724.236V727.948H367.467H371.179V731.441V734.934H374.672H378.166V873.362V1011.79H374.69H371.214L371.088 1015.39L370.961 1019L367.358 1019.12L363.755 1019.25V1022.72V1026.2H225.546H87.336V1022.72V1019.25L83.734 1019.12L80.131 1019L80.004 1015.39L79.877 1011.79H76.183H72.489V873.362V734.934H76.201H79.913V731.459V727.983L83.515 727.856L87.118 727.729L87.245 724.127L87.372 720.524H225.564H363.755V724.236ZM101.747 745.852V749.345H225.328H348.908V745.852V742.358H225.328H101.747V745.852ZM94.76 873.362V996.943H98.253H101.747V873.362V749.782H98.253H94.76V873.362ZM349.345 873.362V996.943H352.838H356.332V873.362V749.782H352.838H349.345V873.362ZM101.747 1000.87V1004.37H225.328H348.908V1000.87V997.38H225.328H101.747V1000.87Z" fill="#FFF3B7"/>
<path fill-rule="evenodd" clip-rule="evenodd" d="M36.681 40.1737V43.6667H32.969H29.258V69.2127V94.7587H14.629H0V98.2517V101.746H14.629H29.258V116.375V131.003H32.733H36.209L36.336 134.606L36.463 138.209L196.397 138.318L356.332 138.428V134.716V131.003H360.044H363.755V116.375V101.746H381.878H400V98.2517V94.7587H381.878H363.755V69.2127V43.6667H360.044H356.332V40.1737V36.6797H196.507H36.681V40.1737ZM349.345 47.3787V51.0907H352.838H356.332V87.3347V123.58H352.838H349.345V127.292V131.003H196.507H43.668V127.292V123.58H39.956H36.245V87.3347V51.0907H39.956H43.668V47.3787V43.6667H196.507H349.345V47.3787ZM51.092 54.5837V58.0777H47.38H43.668V87.3347V116.593H47.38H51.092V120.086V123.58H196.507H341.921V120.086V116.593H345.415H348.908V87.3347V58.0777H345.415H341.921V54.5837V51.0907H196.507H51.092V54.5837ZM94.76 69.2127V72.9247H83.843H72.926V76.4177V79.9117H83.843H94.76V83.6227V87.3347H98.253H101.747V94.7587V102.182H98.253H94.76V105.676V109.169H80.131H65.502V105.676V102.182H61.773H58.045L58.171 98.3607L58.297 94.5397L61.9 94.4137L65.502 94.2867V98.0157V101.746H72.707H79.913V94.5397V87.3347H72.707H65.502V83.8417V80.3477H61.773H58.045L58.171 76.5267L58.297 72.7057L61.9 72.5797L65.502 72.4527V68.9767V65.5007H80.131H94.76V69.2127ZM152.838 68.9767V72.4527L156.441 72.5797L160.044 72.7057V76.4177V80.1297L152.729 80.2497L145.415 80.3687V76.6467V72.9247H138.21H131.004V87.3347V101.746H138.21H145.415V98.0227V94.3007L152.729 94.4207L160.044 94.5397V98.2517V101.964L156.441 102.091L152.838 102.218V105.694V109.169H138.21H123.581V105.694V102.218L119.978 102.091L116.376 101.964V87.3347V72.7057L119.978 72.5797L123.581 72.4527V68.9767V65.5007H138.21H152.838V68.9767ZM210.917 68.9767V72.4527L214.52 72.5797L218.122 72.7057V87.3347V101.964L214.52 102.091L210.917 102.218V105.694V109.169H196.288H181.659V105.676V102.182H178.166H174.672V87.3347V72.4877H178.166H181.659V68.9947V65.5007H196.288H210.917V68.9767ZM268.996 68.9947V72.4877H272.707H276.419V79.9117V87.3347H272.707H268.996V91.0467V94.7587H265.502H262.009V98.2517V101.746H269.214H276.419V105.458V109.169H268.996H261.572V105.676V102.182H258.079H254.585V98.4707V94.7587H251.092H247.598V101.964V109.169H240.175H232.751V87.3347V65.5007H250.873H268.996V68.9947ZM334.498 69.2127V72.9247H320.087H305.677V76.4177V79.9117H316.594H327.511V83.6227V87.3347H316.594H305.677V94.5397V101.746H320.087H334.498V105.458V109.169H312.664H290.83V87.3347V65.5007H312.664H334.498V69.2127ZM189.083 87.3347V101.746H196.288H203.493V87.3347V72.9247H196.288H189.083V87.3347ZM247.598 80.1297V87.3347H254.585H261.572V80.1297V72.9247H254.585H247.598V80.1297ZM0 156.549V160.261H200H400V156.549V152.837H200H0V156.549ZM0 203.711V240.174H200H400V203.711V167.248H200H0V203.711ZM0 251.091V254.584H200H400V251.091V247.597H200H0V251.091ZM36.59 331.113L36.463 334.715L32.86 334.842L29.258 334.969V407.659V480.348H32.969H36.681V483.842V487.335H196.507H356.332V483.842V480.348H360.044H363.755V407.641V334.933H360.044H356.332V331.222V327.51H196.524H36.717L36.59 331.113ZM349.345 338.427V341.92H352.838H356.332V407.423V472.925H352.838H349.345V476.637V480.348H196.507H43.668V476.637V472.925H39.956H36.245V407.423V341.92H39.956H43.668V338.427V334.933H196.507H349.345V338.427ZM62.118 342.247L51.092 342.372V345.858V349.344H47.38H43.668V407.641V465.938H47.38H51.092V469.431V472.925H196.507H341.921V469.431V465.938H345.415H348.908V407.641V349.344H345.433H341.957L341.83 345.741L341.703 342.139L207.424 342.131C133.57 342.126 68.182 342.179 62.118 342.247ZM72.821 374.781L72.935 393.012H87.341H101.747V396.724V400.436H79.913H58.079V378.674C58.079 366.706 58.214 356.777 58.38 356.612C58.546 356.446 61.837 356.364 65.695 356.43L72.707 356.549L72.821 374.781ZM160.044 360.261V363.973L145.524 364.088L131.004 364.203V367.69V371.178H141.921H152.838V374.89V378.602H141.921H131.004V385.807V393.012H145.633H160.262V396.724V400.436H138.21H116.157V378.674C116.157 366.706 116.29 356.78 116.452 356.618C116.615 356.456 126.489 356.374 138.396 356.436L160.044 356.549V360.261ZM181.993 371.069L182.108 385.589H185.595H189.083V389.3V393.012H192.559H196.035L196.161 389.409L196.288 385.807L199.885 385.68L203.482 385.553L203.597 371.051L203.712 356.549H210.917H218.122V371.178V385.807L214.52 385.934L210.917 386.061V389.536V393.012H207.424H203.93V396.724V400.436H196.507H189.083V396.724V393.012H185.371H181.659V389.519V386.025H178.166H174.672V371.16V356.296L178.275 356.422L181.878 356.549L181.993 371.069ZM276.419 360.261V364.191H262.009H247.598V367.685V371.178H258.297H268.996V374.89V378.602H258.297H247.598V385.807V393.012H262.009H276.419V396.724V400.436H254.585H232.751V378.383V356.331H254.585H276.419V360.261ZM305.572 374.781L305.686 393.012H320.092H334.498V396.724V400.436H312.664H290.83V378.373V356.31L298.144 356.429L305.459 356.549L305.572 374.781ZM36.59 505.785L36.463 509.388L32.86 509.514L29.258 509.641V582.331V655.021H32.969H36.681V658.514V662.008H196.507H356.332V658.514V655.021H360.044H363.755V582.313V509.606H360.044H356.332V505.894V502.182H196.524H36.717L36.59 505.785ZM349.345 513.099V516.593H352.838H356.332V582.095V647.597H352.838H349.345V651.309V655.021H196.507H43.668V651.309V647.597H39.956H36.245V582.095V516.593H39.956H43.668V513.099V509.606H196.507H349.345V513.099ZM72.817 516.92L51.092 517.038V520.527V524.016H47.38H43.668V582.313V640.61H47.38H51.092V644.104V647.597H196.507H341.921V644.104V640.61H345.415H348.908V582.313V524.016H345.433H341.957L341.83 520.414L341.703 516.811L218.122 516.807C150.153 516.804 84.765 516.855 72.817 516.92ZM72.821 549.453L72.935 567.685H87.341H101.747V571.396V575.108H79.913H58.079V553.347C58.079 541.378 58.214 531.45 58.38 531.284C58.546 531.118 61.837 531.036 65.695 531.102L72.707 531.222L72.821 549.453ZM152.746 535.043L152.872 538.864H149.144H145.415V553.274V567.685H149.127H152.838V571.396V575.108H138.21H123.581V571.396V567.685H127.293H131.004V553.274V538.864H127.293H123.581V534.928V530.992L138.1 531.107L152.62 531.222L152.746 535.043ZM182.005 534.824L182.131 538.427H185.607H189.083V542.139V545.851H192.795H196.507V549.344V552.837H199.992H203.478L203.595 542.03L203.712 531.222H210.917H218.122L218.235 553.165L218.349 575.108H210.921H203.493V571.396V567.685H199.782H196.07V564.191V560.698H192.576H189.083V556.986V553.274H185.59H182.096V564.191V575.108H178.384H174.672V553.038V530.968L178.275 531.095L181.878 531.222L182.005 534.824ZM276.419 534.933V538.864H262.009H247.598V542.357V545.851H258.297H268.996V549.562V553.274H258.297H247.598V560.479V567.685H262.009H276.419V571.396V575.108H254.585H232.751V553.056V531.003H254.585H276.419V534.933ZM327.293 534.933V538.645L316.485 538.762L305.677 538.879V542.365V545.851H316.594H327.511V549.344V552.837H331.004H334.498V560.261V567.685H331.004H327.511V571.396V575.108H312.882H298.253V571.396V567.685H294.541H290.83V563.973V560.261H294.541H298.253V563.973V567.685H305.459H312.664V560.479V553.274H305.459H298.253V549.562V545.851H294.541H290.83V542.139V538.427H294.541H298.253V534.709V530.992L312.773 531.107L327.293 531.222V534.933ZM87.336 731.422V734.898L83.734 735.025L80.131 735.152L80.021 873.471L79.911 1011.79H83.624H87.336V1015.28V1018.78H225.546H363.755V1015.28V1011.79H367.249H370.742V873.361V734.933H367.249H363.755V731.44V727.947H225.546H87.336V731.422ZM356.332 738.645V742.357H360.044H363.755V873.361V1004.37H360.044H356.332V1008.08V1011.79H225.546H94.76V1008.08V1004.37H91.048H87.336V873.361V742.357H91.048H94.76V738.645V734.933H225.546H356.332V738.645ZM101.747 873.361V996.942H225.328H348.908V873.361V749.781H225.328H101.747V873.361Z" fill="#C4D39C"/>
<path fill-rule="evenodd" clip-rule="evenodd" d="M28.9262 68.8802L28.8212 94.3102L14.3012 94.4322L-0.217773 94.5532L14.3152 94.6562C25.6162 94.7362 28.8952 94.6372 29.0572 94.2132C29.1722 93.9132 29.2132 82.3682 29.1492 68.5582L29.0322 43.4492L28.9262 68.8802ZM43.6682 47.3792V51.0912H40.1752H36.6812V87.3352V123.58H40.1752H43.6682V127.292V131.003H196.288H348.908V127.292V123.58H352.62H356.332V87.3352V51.0912H352.62H348.908V47.3792V43.6672H196.288H43.6682V47.3792ZM341.921 54.3662V58.0782H345.633H349.345V87.3352V116.593H345.633H341.921V120.305V124.018L196.397 123.908L50.8732 123.798L50.7472 120.196L50.6202 116.593H47.1442H43.6682V87.3352V58.0782H47.1622H50.6552V54.6572C50.6552 52.7762 50.7862 51.1052 50.9462 50.9452C51.1062 50.7852 116.641 50.6542 196.579 50.6542H341.921V54.3662ZM94.4102 68.8782L94.3232 72.4732L83.5152 72.5982L72.7072 72.7222L83.5292 72.8242C95.8852 72.9392 94.8752 73.3302 94.6492 68.5172L94.4972 65.2832L94.4102 68.8782ZM152.554 68.9952C152.554 71.0362 152.63 71.8712 152.721 70.8512C152.813 69.8302 152.813 68.1592 152.721 67.1392C152.63 66.1182 152.554 66.9532 152.554 68.9952ZM181.814 69.2132C181.813 71.3752 181.887 72.3142 181.978 71.3002C182.07 70.2872 182.071 68.5182 181.981 67.3702C181.891 66.2222 181.816 67.0512 181.814 69.2132ZM134.628 72.8142C136.742 72.8942 140.082 72.8932 142.052 72.8132C144.022 72.7322 142.293 72.6662 138.21 72.6672C134.127 72.6672 132.515 72.7332 134.628 72.8142ZM196.288 72.8102L203.493 72.9462V87.3352V101.725L196.288 101.861L189.082 101.997L196.397 101.98L203.712 101.964V87.3352V72.7062L196.397 72.6902L189.082 72.6742L196.288 72.8102ZM250.764 72.8132C252.866 72.8932 256.305 72.8932 258.406 72.8132C260.508 72.7332 258.788 72.6682 254.585 72.6682C250.382 72.6682 248.663 72.7332 250.764 72.8132ZM312.773 72.8152C316.796 72.8872 323.379 72.8872 327.402 72.8152C331.425 72.7432 328.133 72.6842 320.087 72.6842C312.041 72.6842 308.75 72.7432 312.773 72.8152ZM58.2312 76.4182C58.2312 78.4602 58.3062 79.2952 58.3982 78.2742C58.4902 77.2532 58.4902 75.5832 58.3982 74.5622C58.3062 73.5422 58.2312 74.3772 58.2312 76.4182ZM218.1 87.3352C218.1 95.3812 218.159 98.6732 218.231 94.6502C218.303 90.6272 218.303 84.0442 218.231 80.0212C218.159 75.9982 218.1 79.2892 218.1 87.3352ZM78.3012 80.2382C81.3772 80.3132 86.2892 80.3132 89.2182 80.2382C92.1462 80.1622 89.6292 80.1012 83.6242 80.1012C77.6202 80.1012 75.2242 80.1632 78.3012 80.2382ZM311.052 80.2382C314.128 80.3132 319.04 80.3132 321.969 80.2382C324.897 80.1622 322.38 80.1012 316.376 80.1012C310.371 80.1012 307.975 80.1632 311.052 80.2382ZM80.0102 94.4212L79.9132 101.725L72.5982 101.856L65.2842 101.987L72.6122 102.085C81.2802 102.2 80.4122 103.11 80.2402 94.0862L80.1072 87.1172L80.0102 94.4212ZM249.031 94.6442C250.179 94.7342 251.947 94.7332 252.961 94.6412C253.974 94.5502 253.035 94.4762 250.873 94.4772C248.712 94.4782 247.883 94.5532 249.031 94.6442ZM261.756 94.9092C261.632 95.2322 261.589 96.9512 261.661 98.7302L261.79 101.964L269.105 101.98L276.42 101.997L269.214 101.861L262.009 101.725V98.2592V94.7942L265.611 94.6472L269.214 94.5002L265.598 94.4112C262.909 94.3452 261.924 94.4732 261.756 94.9092ZM372.846 94.6492C377.966 94.7192 386.219 94.7192 391.187 94.6492C396.154 94.5792 391.965 94.5222 381.878 94.5222C371.79 94.5222 367.726 94.5792 372.846 94.6492ZM58.2312 98.2522C58.2312 100.294 58.3062 101.129 58.3982 100.108C58.4902 99.0872 58.4902 97.4172 58.3982 96.3962C58.3062 95.3762 58.2312 96.2112 58.2312 98.2522ZM94.4782 105.458C94.4772 107.619 94.5512 108.558 94.6422 107.545C94.7342 106.531 94.7352 104.763 94.6452 103.615C94.5542 102.467 94.4792 103.296 94.4782 105.458ZM134.628 102.071C136.742 102.151 140.082 102.151 142.052 102.07C144.022 101.99 142.293 101.924 138.21 101.924C134.127 101.925 132.515 101.991 134.628 102.071ZM181.814 105.458C181.813 107.619 181.887 108.558 181.978 107.545C182.07 106.531 182.071 104.763 181.981 103.615C181.891 102.467 181.816 103.296 181.814 105.458ZM312.773 102.072C316.796 102.145 323.379 102.145 327.402 102.072C331.425 102 328.133 101.941 320.087 101.941C312.041 101.941 308.75 102 312.773 102.072ZM0.000226557 127.51V152.837H200H400V127.51V102.182H381.878H363.755V116.593V131.003H360.044H356.332V134.715V138.427H196.288H36.2452V134.715V131.003H32.5332H28.8212V116.593V102.182H14.4102H0.000226557V127.51ZM152.554 105.676C152.554 107.717 152.63 108.552 152.721 107.532C152.813 106.511 152.813 104.841 152.721 103.82C152.63 102.799 152.554 103.634 152.554 105.676ZM0.000226557 163.754V167.248H200H400V163.754V160.261H200H0.000226557V163.754ZM0.000226557 243.667V247.161H200H400V243.667V240.174H200H0.000226557V243.667ZM99.8912 254.912C154.951 254.973 245.049 254.973 300.109 254.912C355.169 254.851 310.12 254.801 200 254.801C89.8802 254.801 44.8312 254.851 99.8912 254.912ZM29.0232 335.043C28.9082 335.343 28.8662 368.209 28.9282 408.078L29.0422 480.567L29.1502 407.768L29.2582 334.969L32.8602 334.822L36.4632 334.675L32.8472 334.586C30.2872 334.523 29.1702 334.656 29.0232 335.043ZM358.201 334.818C359.349 334.909 361.118 334.907 362.131 334.816C363.145 334.724 362.205 334.65 360.044 334.652C357.882 334.653 357.053 334.728 358.201 334.818ZM43.6682 338.645V342.357H40.1752H36.6812V407.641V472.925H40.1752H43.6682V476.637V480.348H196.288H348.908V476.637V472.925H352.62H356.332V407.659V342.392L352.729 342.266L349.127 342.139L349 338.536L348.873 334.933H196.271H43.6682V338.645ZM341.921 345.632V349.344H345.633H349.345V407.641V465.938H345.633H341.921V469.65V473.363L196.397 473.253L50.8732 473.143L50.7472 469.54L50.6202 465.938H47.1442H43.6682V407.641V349.344H47.1622H50.6552V345.632V341.92H196.288H341.921V345.632ZM58.1842 378.492L58.0792 400.436L80.0222 400.331L101.965 400.226L80.2442 400.108L58.5232 399.991L58.4062 378.27L58.2892 356.549L58.1842 378.492ZM72.6442 360.479C72.6432 362.641 72.7172 363.58 72.8082 362.567C72.9002 361.553 72.9012 359.785 72.8112 358.637C72.7202 357.489 72.6452 358.318 72.6442 360.479ZM203.596 371.051L203.493 385.553L199.891 385.7L196.288 385.847L199.905 385.936C204.389 386.047 203.966 387.689 203.821 370.738L203.699 356.549L203.596 371.051ZM218.1 371.178C218.1 379.224 218.159 382.515 218.231 378.492C218.303 374.47 218.303 367.887 218.231 363.864C218.159 359.841 218.1 363.132 218.1 371.178ZM152.402 374.664V378.15L141.594 378.274L130.786 378.399L141.812 378.5L152.838 378.602V374.89C152.838 372.848 152.74 371.178 152.62 371.178C152.5 371.178 152.402 372.747 152.402 374.664ZM252.511 378.491C255.573 378.566 260.584 378.566 263.646 378.491C266.709 378.416 264.203 378.355 258.079 378.355C251.954 378.355 249.449 378.416 252.511 378.491ZM181.844 386.175C181.72 386.498 181.687 388.217 181.77 389.996L181.923 393.23L182.009 389.645L182.096 386.061L185.699 385.913L189.301 385.766L185.685 385.677C182.996 385.611 182.011 385.739 181.844 386.175ZM127.432 400.326C133.513 400.395 143.339 400.395 149.266 400.326C155.194 400.257 150.218 400.201 138.21 400.202C126.201 400.202 121.351 400.258 127.432 400.326ZM192.707 400.324C194.82 400.405 198.161 400.404 200.131 400.324C202.1 400.243 200.371 400.177 196.288 400.178C192.205 400.178 190.594 400.244 192.707 400.324ZM243.559 400.326C249.623 400.395 259.547 400.395 265.611 400.326C271.676 400.258 266.714 400.202 254.585 400.202C242.456 400.202 237.495 400.258 243.559 400.326ZM301.638 400.326C307.702 400.395 317.626 400.395 323.69 400.326C329.754 400.258 324.793 400.202 312.664 400.202C300.535 400.202 295.573 400.258 301.638 400.326ZM29.0232 509.715C28.9082 510.015 28.8662 542.881 28.9282 582.75L29.0422 655.239L29.1502 582.44L29.2582 509.641L32.8602 509.494L36.4632 509.347L32.8472 509.258C30.2872 509.195 29.1702 509.329 29.0232 509.715ZM358.201 509.491C359.349 509.581 361.118 509.58 362.131 509.488C363.145 509.397 362.205 509.323 360.044 509.324C357.882 509.326 357.053 509.401 358.201 509.491ZM43.6682 513.318V517.03H40.1752H36.6812V582.313V647.597H40.1752H43.6682V651.309V655.021H196.288H348.908V651.309V647.597H352.62H356.332V582.331V517.065L352.729 516.938L349.127 516.811L349 513.209L348.873 509.606H196.271H43.6682V513.318ZM341.921 520.305V524.016H345.633H349.345V582.313V640.61H345.633H341.921V644.323V648.035L196.397 647.925L50.8732 647.816L50.7472 644.213L50.6202 640.61H47.1442H43.6682V582.313V524.016H47.1622H50.6552V520.305V516.593H196.288H341.921V520.305ZM58.1842 553.165L58.0792 575.108L80.0222 575.003L101.965 574.898L80.2442 574.781L58.5232 574.663L58.4062 552.943L58.2892 531.222L58.1842 553.165ZM72.6422 534.933C72.6422 536.975 72.7172 537.81 72.8092 536.789C72.9012 535.769 72.9012 534.098 72.8092 533.078C72.7172 532.057 72.6422 532.892 72.6422 534.933ZM152.554 534.933C152.554 536.975 152.63 537.81 152.721 536.789C152.813 535.769 152.813 534.098 152.721 533.078C152.63 532.057 152.554 532.892 152.554 534.933ZM203.683 542.357C203.683 548.482 203.745 550.987 203.82 547.925C203.895 544.863 203.895 539.852 203.82 536.789C203.745 533.727 203.683 536.233 203.683 542.357ZM218.009 552.947L217.904 574.671H210.935H203.965L203.809 571.069L203.652 567.466L203.682 571.178L203.712 574.89L210.817 575.01C216.262 575.102 217.973 575 218.136 574.573C218.254 574.267 218.297 564.388 218.232 552.619L218.114 531.222L218.009 552.947ZM183.528 538.748C184.677 538.839 186.445 538.838 187.459 538.746C188.472 538.654 187.533 538.581 185.371 538.582C183.21 538.583 182.38 538.658 183.528 538.748ZM292.699 538.748C293.847 538.839 295.615 538.838 296.629 538.746C297.642 538.654 296.703 538.581 294.541 538.582C292.38 538.583 291.551 538.658 292.699 538.748ZM196.225 549.562C196.224 551.724 196.297 552.663 196.389 551.65C196.481 550.636 196.482 548.868 196.391 547.72C196.301 546.572 196.226 547.401 196.225 549.562ZM183.734 553.157C184.754 553.249 186.425 553.249 187.445 553.157C188.466 553.065 187.631 552.99 185.59 552.99C183.548 552.99 182.713 553.065 183.734 553.157ZM252.511 553.164C255.573 553.239 260.584 553.239 263.646 553.164C266.709 553.089 264.203 553.027 258.079 553.027C251.954 553.027 249.449 553.089 252.511 553.164ZM301.877 553.163C303.991 553.243 307.331 553.243 309.301 553.162C311.271 553.081 309.541 553.016 305.459 553.016C301.376 553.017 299.764 553.083 301.877 553.163ZM292.699 560.583C293.847 560.673 295.615 560.672 296.629 560.58C297.642 560.489 296.703 560.415 294.541 560.416C292.38 560.417 291.551 560.492 292.699 560.583ZM152.402 571.172V574.66L137.882 574.781L123.362 574.902L138.1 575.005L152.838 575.108V571.396C152.838 569.355 152.74 567.685 152.62 567.685C152.5 567.685 152.402 569.254 152.402 571.172ZM176.31 574.991C177.331 575.083 179.001 575.083 180.022 574.991C181.043 574.899 180.207 574.824 178.166 574.824C176.124 574.824 175.289 574.899 176.31 574.991ZM243.559 574.999C249.623 575.067 259.547 575.067 265.611 574.999C271.676 574.93 266.714 574.874 254.585 574.874C242.456 574.874 237.495 574.93 243.559 574.999ZM305.349 574.998C309.372 575.07 315.955 575.07 319.978 574.998C324.001 574.926 320.71 574.867 312.664 574.867C304.618 574.867 301.326 574.926 305.349 574.998ZM370.934 731.658L370.961 735.152L374.454 735.178L377.948 735.205L374.581 735.052L371.214 734.899L371.061 731.532L370.908 728.165L370.934 731.658ZM72.4892 873.361V1011.79L76.3102 1011.7L80.1312 1011.61L76.5282 1011.47L72.9262 1011.32V873.361V735.405L76.5282 735.258L80.1312 735.111L76.3102 735.022L72.4892 734.933V873.361ZM101.747 738.864V742.357H98.2712H94.7952L94.6682 745.96L94.5412 749.562L90.9392 749.689L87.3362 749.816V873.361V996.907L90.9392 997.034L94.5412 997.161L94.6682 1000.76L94.7952 1004.37H98.2712H101.747V1007.86V1011.35H225.328H348.908V1007.86V1004.37H352.62H356.332V1000.65V996.942H360.044H363.755V873.361V749.781H360.044H356.332V746.069V742.357H352.62H348.908V738.864V735.37H225.328H101.747V738.864ZM348.908 745.851V749.344H225.328H101.747V745.851V742.357H225.328H348.908V745.851ZM349.017 869.977L349.125 990.174L349.236 869.977L349.347 749.781H352.839H356.332V873.361V996.942H225.546H94.7602V873.361V749.781H221.834H348.908L349.017 869.977ZM348.908 1000.87V1004.37H225.328H101.747V1000.87V997.379H225.328H348.908V1000.87ZM371.033 1011.64C370.873 1011.8 370.742 1013.47 370.742 1015.34V1018.74L367.358 1018.89L363.974 1019.05L367.467 1019.02L370.961 1019L371.087 1015.41L371.214 1011.82L374.799 1011.68L378.384 1011.53L374.854 1011.44C372.913 1011.39 371.194 1011.48 371.033 1011.64ZM81.9872 1019.1C83.0082 1019.19 84.6782 1019.19 85.6992 1019.1C86.7192 1019 85.8842 1018.93 83.8432 1018.93C81.8012 1018.93 80.9662 1019 81.9872 1019.1Z" fill="#6C7453"/>
<path fill-rule="evenodd" clip-rule="evenodd" d="M36.3332 40.0671L36.4222 43.8871L36.5692 40.2851L36.7172 36.6831L196.633 36.5731L356.55 36.4631L196.397 36.3541L36.2452 36.2461L36.3332 40.0671ZM349.063 47.3811C349.062 49.5421 349.136 50.4821 349.227 49.4681C349.319 48.4551 349.32 46.6861 349.23 45.5381C349.14 44.3901 349.065 45.2191 349.063 47.3811ZM50.8392 51.2431C50.7152 51.5651 50.6822 53.2851 50.7662 55.0641L50.9182 58.2981L51.0052 54.6961L51.0922 51.0941L196.616 50.9841L342.14 50.8731L196.602 50.7651C75.0942 50.6741 51.0272 50.7531 50.8392 51.2431ZM36.4532 87.3371C36.4532 107.392 36.5072 115.596 36.5722 105.569C36.6372 95.5411 36.6372 79.1331 36.5722 69.1061C36.5072 59.0791 36.4532 67.2831 36.4532 87.3371ZM349.115 87.3371C349.115 103.549 349.169 110.181 349.236 102.075C349.302 93.9691 349.302 80.7051 349.236 72.5991C349.169 64.4931 349.115 71.1251 349.115 87.3371ZM60.1532 72.8101C61.1742 72.9021 62.8442 72.9021 63.8652 72.8101C64.8852 72.7181 64.0502 72.6431 62.0092 72.6431C59.9672 72.6431 59.1322 72.7181 60.1532 72.8101ZM116.356 73.0391C116.24 73.3421 116.197 79.9741 116.26 87.7771L116.376 101.966L119.869 101.993L123.362 102.019L119.978 101.866L116.594 101.712V87.3371V72.9621L120.197 72.8151L123.799 72.6681L120.183 72.5791C117.612 72.5161 116.506 72.6491 116.356 73.0391ZM156.441 72.8091L159.825 72.9621V76.4271V79.8931L152.62 80.0291L145.414 80.1651L152.729 80.1481L160.044 80.1321V76.4201V72.7081L156.55 72.6821L153.057 72.6561L156.441 72.8091ZM176.31 72.8101C177.331 72.9021 179.001 72.9021 180.022 72.8101C181.043 72.7181 180.207 72.6431 178.166 72.6431C176.124 72.6431 175.289 72.7181 176.31 72.8101ZM212.555 72.8101C213.575 72.9021 215.246 72.9021 216.266 72.8101C217.287 72.7181 216.452 72.6431 214.41 72.6431C212.369 72.6431 211.534 72.7181 212.555 72.8101ZM270.865 72.8121C272.013 72.9021 273.781 72.9011 274.795 72.8091C275.808 72.7181 274.869 72.6441 272.707 72.6451C270.546 72.6461 269.717 72.7211 270.865 72.8121ZM72.6422 76.4201C72.6422 78.4621 72.7172 79.2971 72.8092 78.2761C72.9012 77.2551 72.9012 75.5851 72.8092 74.5641C72.7172 73.5441 72.6422 74.3791 72.6422 76.4201ZM247.34 80.1321C247.34 84.2151 247.405 85.9441 247.486 83.9741C247.567 82.0051 247.567 78.6641 247.487 76.5511C247.407 74.4381 247.341 76.0491 247.34 80.1321ZM261.751 80.1321C261.75 84.2151 261.816 85.9441 261.897 83.9741C261.977 82.0051 261.978 78.6641 261.898 76.5511C261.817 74.4381 261.751 76.0491 261.751 80.1321ZM305.393 76.4201C305.393 78.4621 305.468 79.2971 305.56 78.2761C305.652 77.2551 305.652 75.5851 305.56 74.5641C305.468 73.5441 305.393 74.3791 305.393 76.4201ZM59.9482 80.2351C61.0962 80.3251 62.8642 80.3241 63.8782 80.2331C64.8912 80.1411 63.9522 80.0671 61.7902 80.0691C59.6292 80.0701 58.8002 80.1451 59.9482 80.2351ZM94.4782 83.6251C94.4772 85.7871 94.5512 86.7261 94.6422 85.7131C94.7342 84.6991 94.7352 82.9311 94.6452 81.7831C94.5542 80.6351 94.4792 81.4641 94.4782 83.6251ZM327.229 83.6251C327.228 85.7871 327.302 86.7261 327.393 85.7131C327.485 84.6991 327.486 82.9311 327.396 81.7831C327.306 80.6351 327.231 81.4641 327.229 83.6251ZM305.419 94.5421C305.418 98.6251 305.484 100.355 305.565 98.3851C305.645 96.4151 305.646 93.0751 305.566 90.9611C305.485 88.8481 305.419 90.4601 305.419 94.5421ZM60.1532 94.6441C61.1742 94.7361 62.8442 94.7361 63.8652 94.6441C64.8852 94.5521 64.0502 94.4771 62.0092 94.4771C59.9672 94.4771 59.1322 94.5521 60.1532 94.6441ZM152.62 94.6461L159.825 94.7821V98.2471V101.712L156.441 101.866L153.057 102.019L156.55 101.993L160.044 101.966V98.2541V94.5421L152.729 94.5261L145.414 94.5101L152.62 94.6461ZM247.34 101.966C247.34 106.049 247.405 107.778 247.486 105.808C247.567 103.839 247.567 100.498 247.487 98.3851C247.407 96.2721 247.341 97.8831 247.34 101.966ZM14.2952 102.075L28.8092 102.196L28.9302 116.71L29.0512 131.224L29.1552 116.486L29.2582 101.748L14.5202 101.851L-0.217773 101.954L14.2952 102.075ZM59.9482 102.069C61.0962 102.159 62.8642 102.158 63.8782 102.067C64.8912 101.975 63.9522 101.901 61.7902 101.903C59.6292 101.904 58.8002 101.979 59.9482 102.069ZM96.3972 102.067C97.4182 102.159 99.0882 102.159 100.109 102.067C101.13 101.976 100.295 101.9 98.2532 101.9C96.2122 101.9 95.3772 101.976 96.3972 102.067ZM176.31 102.067C177.331 102.159 179.001 102.159 180.022 102.067C181.043 101.976 180.207 101.9 178.166 101.9C176.124 101.9 175.289 101.976 176.31 102.067ZM212.555 102.067C213.575 102.159 215.246 102.159 216.266 102.067C217.287 101.976 216.452 101.9 214.41 101.9C212.369 101.9 211.534 101.976 212.555 102.067ZM257.952 102.072L261.537 102.219L261.684 105.804L261.831 109.39L261.92 105.569L262.009 101.748L258.188 101.837L254.367 101.925L257.952 102.072ZM372.846 102.075C377.966 102.145 386.219 102.145 391.187 102.075C396.154 102.005 391.965 101.947 381.878 101.948C371.79 101.948 367.726 102.005 372.846 102.075ZM50.8472 120.307L50.8732 123.8L196.397 123.801L341.921 123.802L196.524 123.691L51.1272 123.58L50.9742 120.197L50.8202 116.813L50.8472 120.307ZM349.063 127.294C349.062 129.455 349.136 130.394 349.227 129.381C349.319 128.367 349.32 126.599 349.23 125.451C349.14 124.303 349.065 125.132 349.063 127.294ZM99.8912 247.49C154.951 247.551 245.049 247.551 300.109 247.49C355.169 247.429 310.12 247.379 200 247.379C89.8802 247.379 44.8312 247.429 99.8912 247.49ZM36.3972 331.005C36.3972 333.047 36.4722 333.882 36.5642 332.861C36.6562 331.841 36.6562 330.17 36.5642 329.149C36.4722 328.129 36.3972 328.964 36.3972 331.005ZM349.1 338.647L349.127 342.141L352.62 342.167L356.114 342.194L352.747 342.041L349.38 341.888L349.227 338.521L349.074 335.154L349.1 338.647ZM36.3522 407.534L36.4602 473.145L36.5722 407.77L36.6842 342.394L40.2852 342.247L43.8862 342.1L40.0662 342.011L36.2452 341.922L36.3522 407.534ZM50.7442 345.743L50.8332 349.564L50.9802 345.969L51.1272 342.374L62.1352 342.25L73.1442 342.125L61.9002 342.024L50.6552 341.922L50.7442 345.743ZM349.12 407.643C349.12 439.826 349.172 452.928 349.236 436.757C349.299 420.587 349.299 394.255 349.236 378.242C349.172 362.229 349.12 375.46 349.12 407.643ZM61.9002 356.658C63.8812 356.739 67.1232 356.739 69.1052 356.658C71.0862 356.577 69.4652 356.511 65.5022 356.511C61.5392 356.511 59.9182 356.577 61.9002 356.658ZM116.359 356.875C116.243 357.177 116.201 367.152 116.266 379.04L116.384 400.656L116.489 378.713L116.594 356.77H138.21H159.825V360.257V363.745L145.306 363.869L130.786 363.993L145.415 363.984L160.044 363.975V360.263V356.551L138.307 356.438C121.15 356.349 116.525 356.441 116.359 356.875ZM178.275 356.652L181.659 356.805V371.18V385.555L178.057 385.702L174.454 385.849L178.281 385.938L182.108 386.027L181.993 371.289L181.878 356.551L178.384 356.525L174.891 356.498L178.275 356.652ZM207.314 356.658C209.296 356.739 212.538 356.739 214.52 356.658C216.501 356.577 214.88 356.511 210.917 356.511C206.954 356.511 205.333 356.577 207.314 356.658ZM243.559 356.66C249.623 356.729 259.547 356.729 265.611 356.66C271.676 356.592 266.714 356.536 254.585 356.536C242.456 356.536 237.495 356.592 243.559 356.66ZM298.03 356.655L305.231 356.791L305.352 375.012L305.473 393.232L305.466 374.892L305.459 356.551L298.144 356.535L290.829 356.519L298.03 356.655ZM247.25 367.577L247.339 371.398L247.486 367.802L247.633 364.205L262.135 364.084L276.638 363.963L261.9 363.86L247.162 363.756L247.25 367.577ZM72.6852 378.604C72.6852 386.649 72.7442 389.941 72.8162 385.918C72.8882 381.895 72.8882 375.312 72.8162 371.289C72.7442 367.266 72.6852 370.558 72.6852 378.604ZM247.34 385.809C247.34 389.892 247.405 391.621 247.486 389.651C247.567 387.682 247.567 384.341 247.487 382.228C247.407 380.114 247.341 381.726 247.34 385.809ZM212.555 385.91C213.575 386.002 215.246 386.002 216.266 385.91C217.287 385.818 216.452 385.743 214.41 385.743C212.369 385.743 211.534 385.818 212.555 385.91ZM196.222 389.521C196.222 391.562 196.298 392.397 196.39 391.377C196.482 390.356 196.482 388.685 196.39 387.665C196.298 386.644 196.222 387.479 196.222 389.521ZM159.98 396.726C159.979 398.887 160.053 399.827 160.144 398.813C160.236 397.8 160.237 396.031 160.147 394.883C160.057 393.735 159.982 394.564 159.98 396.726ZM203.648 396.726C203.647 398.887 203.721 399.827 203.813 398.813C203.904 397.8 203.905 396.031 203.815 394.883C203.725 393.735 203.65 394.564 203.648 396.726ZM50.8472 469.652L50.8732 473.145L196.397 473.146L341.921 473.147L196.524 473.036L51.1272 472.925L50.9742 469.542L50.8202 466.158L50.8472 469.652ZM349.063 476.639C349.062 478.8 349.136 479.739 349.227 478.726C349.319 477.712 349.32 475.944 349.23 474.796C349.14 473.648 349.065 474.477 349.063 476.639ZM36.3332 483.953L36.2452 487.774L196.397 487.665L356.55 487.557L196.633 487.446L36.7172 487.336L36.5692 483.734L36.4222 480.132L36.3332 483.953ZM36.3972 505.678C36.3972 507.719 36.4722 508.554 36.5642 507.534C36.6562 506.513 36.6562 504.843 36.5642 503.822C36.4722 502.801 36.3972 503.636 36.3972 505.678ZM349.1 513.32L349.127 516.813L352.62 516.84L356.114 516.866L352.747 516.713L349.38 516.56L349.227 513.193L349.074 509.826L349.1 513.32ZM36.3522 582.206L36.4602 647.818L36.5722 582.442L36.6842 517.067L40.2852 516.92L43.8862 516.773L40.0662 516.684L36.2452 516.595L36.3522 582.206ZM50.7442 520.416L50.8332 524.237L50.9802 520.638L51.1272 517.04L72.8342 516.922L94.5412 516.805L72.5982 516.7L50.6552 516.595L50.7442 520.416ZM349.12 582.315C349.12 614.499 349.172 627.6 349.236 611.43C349.299 595.259 349.299 568.928 349.236 552.915C349.172 536.902 349.12 550.132 349.12 582.315ZM61.9002 531.33C63.8812 531.411 67.1232 531.411 69.1052 531.33C71.0862 531.249 69.4652 531.183 65.5022 531.183C61.5392 531.183 59.9182 531.249 61.9002 531.33ZM130.677 531.332C134.7 531.404 141.283 531.404 145.306 531.332C149.329 531.26 146.037 531.201 137.991 531.201C129.945 531.201 126.654 531.26 130.677 531.332ZM178.258 531.324L181.625 531.477L181.778 534.844L181.931 538.211L181.904 534.717L181.878 531.224L178.384 531.197L174.891 531.171L178.258 531.324ZM207.314 531.33C209.296 531.411 212.538 531.411 214.52 531.33C216.501 531.249 214.88 531.183 210.917 531.183C206.954 531.183 205.333 531.249 207.314 531.33ZM243.559 531.333C249.623 531.401 259.547 531.401 265.611 531.333C271.676 531.264 266.714 531.208 254.585 531.208C242.456 531.208 237.495 531.264 243.559 531.333ZM312.555 531.33L327.074 531.454V534.934V538.414L316.266 538.53L305.459 538.647L305.43 542.251L305.402 545.855L305.557 542.368L305.712 538.881L316.502 538.764L327.293 538.647V534.935V531.224L312.664 531.215L298.035 531.206L312.555 531.33ZM72.6852 553.058C72.6852 561.224 72.7442 564.503 72.8162 560.344C72.8882 556.186 72.8882 549.505 72.8162 545.497C72.7442 541.49 72.6852 544.892 72.6852 553.058ZM125.45 538.75C126.598 538.841 128.366 538.84 129.38 538.748C130.393 538.656 129.454 538.583 127.293 538.584C125.131 538.585 124.302 538.66 125.45 538.75ZM147.284 538.75C148.432 538.841 150.201 538.84 151.214 538.748C152.228 538.656 151.288 538.583 149.127 538.584C146.965 538.585 146.136 538.66 147.284 538.75ZM247.25 542.25L247.339 546.071L247.486 542.474L247.633 538.877L262.135 538.756L276.638 538.635L261.9 538.532L247.162 538.429L247.25 542.25ZM327.266 549.564L327.293 553.058L330.786 553.084L334.279 553.111L330.913 552.958L327.546 552.805L327.393 549.438L327.24 546.071L327.266 549.564ZM198.144 553.159C199.165 553.251 200.835 553.251 201.856 553.159C202.877 553.067 202.041 552.992 200 552.992C197.959 552.992 197.123 553.067 198.144 553.159ZM181.849 564.193C181.849 570.318 181.911 572.823 181.986 569.761C182.061 566.699 182.061 561.688 181.986 558.625C181.911 555.563 181.849 558.069 181.849 564.193ZM247.34 560.481C247.34 564.564 247.405 566.293 247.486 564.324C247.567 562.354 247.567 559.013 247.487 556.9C247.407 554.787 247.341 556.398 247.34 560.481ZM192.45 560.588L196.035 560.734L196.182 564.32L196.329 567.905L196.418 564.084L196.507 560.263L192.686 560.352L188.865 560.441L192.45 560.588ZM327.229 571.398C327.228 573.56 327.302 574.499 327.393 573.486C327.485 572.472 327.486 570.704 327.396 569.556C327.306 568.408 327.231 569.237 327.229 571.398ZM50.8472 644.324L50.8732 647.818L196.397 647.819L341.921 647.82L196.524 647.709L51.1272 647.598L50.9742 644.214L50.8202 640.831L50.8472 644.324ZM349.063 651.311C349.062 653.473 349.136 654.412 349.227 653.398C349.319 652.385 349.32 650.616 349.23 649.468C349.14 648.32 349.065 649.149 349.063 651.311ZM36.3332 658.625L36.2452 662.446L196.397 662.338L356.55 662.229L196.633 662.119L36.7172 662.009L36.5692 658.407L36.4222 654.804L36.3332 658.625ZM87.3362 724.237V727.949H83.6242H79.9132V731.66V735.372H76.4192H72.9262V873.363V1011.36H76.4192H79.9112L80.0212 873.254L80.1312 735.154L83.7342 735.027L87.3362 734.9V731.424V727.949H225.546H363.755V731.442V734.935H367.249H370.742V873.363V1011.79H367.249H363.755V1015.29V1018.78H225.546H87.3362V1015.29V1011.79H83.6242H79.9132V1015.29V1018.78H83.6242H87.3362V1022.49V1026.2H225.546H363.755V1022.49V1018.78H367.231H370.707L370.834 1015.18L370.961 1011.57L374.563 1011.45L378.166 1011.32V873.363V735.407L374.563 735.281L370.961 735.154L370.834 731.551L370.707 727.949H367.231H363.755V724.237V720.525H225.546H87.3362V724.237ZM94.7602 738.647V742.359H91.0482H87.3362V746.089V749.818L90.9392 749.691L94.5412 749.564L94.6682 745.962L94.7952 742.359H98.2712H101.747V738.866V735.372H225.328H348.908V738.866V742.359H352.62H356.332V746.071V749.783H360.044H363.755V746.071V742.359H360.044H356.332V738.647V734.935H225.546H94.7602V738.647ZM349.061 993.451C349.061 995.492 349.136 996.327 349.228 995.307C349.32 994.286 349.32 992.616 349.228 991.595C349.136 990.574 349.061 991.409 349.061 993.451ZM87.3362 1000.64V1004.37H91.0482H94.7602V1008.08V1011.79H225.546H356.332V1008.08V1004.37H360.044H363.755V1000.66V996.944H360.044H356.332V1000.66V1004.37H352.62H348.908V1007.86V1011.36H225.328H101.747V1007.86V1004.37H98.2712H94.7952L94.6682 1000.77L94.5412 997.163L90.9392 997.036L87.3362 996.909V1000.64Z" fill="#8C9473"/>
</g>
<defs>
<clipPath id="clip0_187_107">
<rect width="400" height="1047.27" fill="white"/>
</clipPath>
</defs>
</svg>
